<svg width="363" height="256" viewBox="0 0 363 256" fill="none" xmlns="http://www.w3.org/2000/svg">
<path d="M181.503 0L219 36.0121L197.928 160H165.072L144 36.0121L181.503 0Z" fill="#BC7C5C"/>
<path d="M227 47H291.5L216.5 164L203 160.5L227 47Z" fill="#BC7C5C"/>
<path d="M227 47H291.5L216.5 164L203 160.5L227 47Z" fill="#BC7C5C"/>
<path d="M135.5 47H71L146 164L159.5 160.5L135.5 47Z" fill="#BC7C5C"/>
<path d="M135.5 47H71L146 164L159.5 160.5L135.5 47Z" fill="#BC7C5C"/>
<path d="M281.5 81L338 91.5L226.5 179L219 171L281.5 81Z" fill="#BC7C5C"/>
<path d="M281.5 81L338 91.5L226.5 179L219 171L281.5 81Z" fill="#BC7C5C"/>
<path d="M81.5 81L25 91.5L136.5 179L144 171L81.5 81Z" fill="#BC7C5C"/>
<path d="M81.5 81L25 91.5L136.5 179L144 171L81.5 81Z" fill="#BC7C5C"/>
<path d="M320 126L362.5 152.5L226 193.5L221 186.5L320 126Z" fill="#BC7C5C"/>
<path d="M320 126L362.5 152.5L226 193.5L221 186.5L320 126Z" fill="#BC7C5C"/>
<path d="M42.5 126L0 152.5L136.5 193.5L141.5 186.5L42.5 126Z" fill="#BC7C5C"/>
<path d="M42.5 126L0 152.5L136.5 193.5L141.5 186.5L42.5 126Z" fill="#BC7C5C"/>
<circle cx="182" cy="201" r="55" fill="#112129"/>
</svg>
